<svg aria-hidden="true" style="position: absolute; width: 0; height: 0; overflow: hidden;" version="1.1" xmlns="http://www.w3.org/2000/svg" xmlns:xlink="http://www.w3.org/1999/xlink">
<defs>
<symbol id="logo" viewBox="0 0 41 32">
<path fill="#19b5f1" style="fill: var(--color1, #19b5f1)" d="M13.375 1.641h17.090l-12.565 18.849h-17.090l12.565-18.849z"></path>
<path fill="#ca6aeb" style="fill: var(--color2, #ca6aeb)" d="M14.124 22.237l-4.867 7.301h17.901l12.565-18.85h-13.212l-7.698 11.549h-4.689z"></path>
</symbol>


<symbol id="down-arrow" viewBox="0 0 32 32">
<path fill="#fff" style="fill: var(--color1, #fff)" d="M16 20.501l-8-8 1.433-1.433 6.567 6.6 6.567-6.567 1.433 1.433-8 7.967z"></path>
</symbol>


<symbol id="check-box" viewBox="0 0 32 32">
  <path   d="M8.711 12.622l-2.489 2.489 8 8 17.778-17.778-2.489-2.489-15.289 15.289-5.511-5.511zM28.444 28.444h-24.889v-24.889h17.778v-3.556h-17.778c-1.956 0-3.556 1.6-3.556 3.556v24.889c0 1.956 1.6 3.556 3.556 3.556h24.889c1.956 0 3.556-1.6 3.556-3.556v-14.222h-3.556v14.222z"></path>
</symbol>



<symbol id="icon-ctrl" viewBox="0 0 32 32">
<path d="M23 14c-0.278 0-0.555-0.116-0.753-0.341l-6.247-7.14-6.247 7.14c-0.364 0.416-0.995 0.458-1.411 0.094s-0.458-0.995-0.094-1.411l7-8c0.19-0.217 0.464-0.341 0.753-0.341s0.563 0.125 0.753 0.341l7 8c0.364 0.416 0.322 1.047-0.094 1.411-0.19 0.166-0.424 0.247-0.658 0.247z"></path>
</symbol>


</defs></svg>
