<svg aria-hidden="true" style="position: absolute; width: 0; height: 0; overflow: hidden;" version="1.1" xmlns="http://www.w3.org/2000/svg" xmlns:xlink="http://www.w3.org/1999/xlink">
<defs>
<symbol id="logo" viewBox="0 0 41 32">
<path fill="#19b5f1" style="fill: var(--color1, #19b5f1)" d="M13.375 1.641h17.090l-12.565 18.849h-17.090l12.565-18.849z"></path>
<path fill="#ca6aeb" style="fill: var(--color2, #ca6aeb)" d="M14.124 22.237l-4.867 7.301h17.901l12.565-18.85h-13.212l-7.698 11.549h-4.689z"></path>
</symbol>


<symbol id="down-arrow" viewBox="0 0 32 32">
<path fill="#fff" style="fill: var(--color1, #fff)" d="M16 20.501l-8-8 1.433-1.433 6.567 6.6 6.567-6.567 1.433 1.433-8 7.967z"></path>
</symbol>


<symbol id="check-box" viewBox="0 0 32 32">
  <path   d="M8.711 12.622l-2.489 2.489 8 8 17.778-17.778-2.489-2.489-15.289 15.289-5.511-5.511zM28.444 28.444h-24.889v-24.889h17.778v-3.556h-17.778c-1.956 0-3.556 1.6-3.556 3.556v24.889c0 1.956 1.6 3.556 3.556 3.556h24.889c1.956 0 3.556-1.6 3.556-3.556v-14.222h-3.556v14.222z"></path>
</symbol>



<symbol id="icon-ctrl" viewBox="0 0 32 32">
<path d="M23 14c-0.278 0-0.555-0.116-0.753-0.341l-6.247-7.14-6.247 7.14c-0.364 0.416-0.995 0.458-1.411 0.094s-0.458-0.995-0.094-1.411l7-8c0.19-0.217 0.464-0.341 0.753-0.341s0.563 0.125 0.753 0.341l7 8c0.364 0.416 0.322 1.047-0.094 1.411-0.19 0.166-0.424 0.247-0.658 0.247z"></path>
</symbol>

<symbol id="Send" viewBox="0 0 32 32">
<path fill="#fff" style="fill: var(--color1, #fff)" d="M28.154 4.495c-0.628-0.644-1.557-0.884-2.423-0.632l-20.2 5.874c-0.914 0.254-1.562 0.983-1.736 1.909-0.178 0.942 0.444 2.139 1.258 2.639l6.316 3.882c0.648 0.398 1.484 0.298 2.020-0.243l7.233-7.277c0.364-0.379 0.967-0.379 1.331 0 0.364 0.366 0.364 0.96 0 1.339l-7.245 7.279c-0.537 0.539-0.638 1.379-0.242 2.031l3.859 6.379c0.452 0.758 1.23 1.187 2.084 1.187 0.101 0 0.213 0 0.314-0.013 0.979-0.126 1.758-0.796 2.046-1.743l5.988-20.174c0.264-0.859 0.025-1.794-0.603-2.438z"></path>
</symbol>

<symbol id="Message" viewBox="0 0 32 32">
<path fill="#fff" style="fill: var(--color1, #fff)" d="M22.212 2.667c4.44 0 7.788 3.623 7.788 8.427v9.157c0 2.459-0.869 4.68-2.449 6.256-1.417 1.412-3.256 2.16-5.317 2.16h-13.137c-2.057 0-3.895-0.747-5.313-2.16-1.58-1.576-2.449-3.797-2.449-6.256v-9.157c0-4.804 3.348-8.427 7.788-8.427h13.091zM22.212 4.667h-13.091c-3.353 0-5.788 2.703-5.788 6.427v9.157c0 1.924 0.661 3.643 1.861 4.839 1.035 1.033 2.385 1.577 3.905 1.577h13.112c0.003-0.003 0.013 0 0.021 0 1.521 0 2.871-0.544 3.905-1.577 1.201-1.196 1.861-2.915 1.861-4.839v-9.157c0-3.724-2.435-6.427-5.788-6.427zM24.313 10.838c0.348 0.428 0.283 1.057-0.145 1.407l-5.925 4.816c-0.749 0.595-1.645 0.892-2.54 0.892-0.892 0-1.781-0.295-2.525-0.884l-5.98-4.821c-0.431-0.347-0.497-0.977-0.152-1.407 0.348-0.428 0.977-0.496 1.407-0.151l5.975 4.816c0.751 0.595 1.808 0.595 2.564-0.005l5.915-4.808c0.429-0.351 1.059-0.284 1.408 0.145z"></path>
</symbol>
</defs></svg>
