<svg aria-hidden="true" style="position: absolute; width: 0; height: 0; overflow: hidden;" version="1.1" xmlns="http://www.w3.org/2000/svg" xmlns:xlink="http://www.w3.org/1999/xlink">
<defs>
<symbol id="logo" viewBox="0 0 41 32">
<path fill="#19b5f1" style="fill: var(--color1, #19b5f1)" d="M13.375 1.641h17.090l-12.565 18.849h-17.090l12.565-18.849z"></path>
<path fill="#ca6aeb" style="fill: var(--color2, #ca6aeb)" d="M14.124 22.237l-4.867 7.301h17.901l12.565-18.85h-13.212l-7.698 11.549h-4.689z"></path>
</symbol>


<symbol id="down-arrow" viewBox="0 0 32 32">
<path fill="#fff" style="fill: var(--color1, #fff)" d="M16 20.501l-8-8 1.433-1.433 6.567 6.6 6.567-6.567 1.433 1.433-8 7.967z"></path>
</symbol>


<symbol id="check-box" viewBox="0 0 32 32">
  <path   d="M8.711 12.622l-2.489 2.489 8 8 17.778-17.778-2.489-2.489-15.289 15.289-5.511-5.511zM28.444 28.444h-24.889v-24.889h17.778v-3.556h-17.778c-1.956 0-3.556 1.6-3.556 3.556v24.889c0 1.956 1.6 3.556 3.556 3.556h24.889c1.956 0 3.556-1.6 3.556-3.556v-14.222h-3.556v14.222z"></path>
</symbol>



  <symbol id="check-box2" viewBox="0 0 16 16">
    <g clip-path="url(#clip0_21_12651)">
<path d="M4.35556 6.31111L3.11111 7.55556L7.11111 11.5556L16 2.66667L14.7556 1.42222L7.11111 9.06667L4.35556 6.31111ZM14.2222 14.2222H1.77778V1.77778H10.6667V0H1.77778C0.8 0 0 0.8 0 1.77778V14.2222C0 15.2 0.8 16 1.77778 16H14.2222C15.2 16 16 15.2 16 14.2222V7.11111H14.2222V14.2222Z" fill="url(#paint0_linear_21_12651)"/>
</g>
<defs>
<linearGradient id="paint0_linear_21_12651" x1="0" y1="8" x2="16" y2="8" gradientUnits="userSpaceOnUse">
<stop stop-color="#0CBAF1"/>
<stop offset="1" stop-color="#E95CE9"/>
</linearGradient>
<clipPath id="clip0_21_12651">
<rect width="16" height="16" fill="white"/>
</clipPath>
</defs>
  </symbol>


</defs></svg>
