<svg aria-hidden="true" style="position: absolute; width: 0; height: 0; overflow: hidden;" version="1.1" xmlns="http://www.w3.org/2000/svg" xmlns:xlink="http://www.w3.org/1999/xlink">
<defs>
<symbol id="logo" viewBox="0 0 41 32">
<path fill="#19b5f1" style="fill: var(--color1, #19b5f1)" d="M13.375 1.641h17.090l-12.565 18.849h-17.090l12.565-18.849z"></path>
<path fill="#ca6aeb" style="fill: var(--color2, #ca6aeb)" d="M14.124 22.237l-4.867 7.301h17.901l12.565-18.85h-13.212l-7.698 11.549h-4.689z"></path>
</symbol>


<symbol id="down-arrow" viewBox="0 0 32 32">
<path fill="#fff" style="fill: var(--color1, #fff)" d="M16 20.501l-8-8 1.433-1.433 6.567 6.6 6.567-6.567 1.433 1.433-8 7.967z"></path>
</symbol>


<symbol id="check-box" viewBox="0 0 32 32">
  <path   d="M8.711 12.622l-2.489 2.489 8 8 17.778-17.778-2.489-2.489-15.289 15.289-5.511-5.511zM28.444 28.444h-24.889v-24.889h17.778v-3.556h-17.778c-1.956 0-3.556 1.6-3.556 3.556v24.889c0 1.956 1.6 3.556 3.556 3.556h24.889c1.956 0 3.556-1.6 3.556-3.556v-14.222h-3.556v14.222z"></path>
</symbol>



<symbol id="icon-ctrl" viewBox="0 0 32 32">
<path d="M23 14c-0.278 0-0.555-0.116-0.753-0.341l-6.247-7.14-6.247 7.14c-0.364 0.416-0.995 0.458-1.411 0.094s-0.458-0.995-0.094-1.411l7-8c0.19-0.217 0.464-0.341 0.753-0.341s0.563 0.125 0.753 0.341l7 8c0.364 0.416 0.322 1.047-0.094 1.411-0.19 0.166-0.424 0.247-0.658 0.247z"></path>
</symbol>

<symbol id="Send" viewBox="0 0 32 32">
<path fill="#fff" style="fill: var(--color1, #fff)" d="M28.154 4.495c-0.628-0.644-1.557-0.884-2.423-0.632l-20.2 5.874c-0.914 0.254-1.562 0.983-1.736 1.909-0.178 0.942 0.444 2.139 1.258 2.639l6.316 3.882c0.648 0.398 1.484 0.298 2.020-0.243l7.233-7.277c0.364-0.379 0.967-0.379 1.331 0 0.364 0.366 0.364 0.96 0 1.339l-7.245 7.279c-0.537 0.539-0.638 1.379-0.242 2.031l3.859 6.379c0.452 0.758 1.23 1.187 2.084 1.187 0.101 0 0.213 0 0.314-0.013 0.979-0.126 1.758-0.796 2.046-1.743l5.988-20.174c0.264-0.859 0.025-1.794-0.603-2.438z"></path>
</symbol>

<symbol id="Message" viewBox="0 0 32 32">
<path fill="#fff" style="fill: var(--color1, #fff)" d="M22.212 2.667c4.44 0 7.788 3.623 7.788 8.427v9.157c0 2.459-0.869 4.68-2.449 6.256-1.417 1.412-3.256 2.16-5.317 2.16h-13.137c-2.057 0-3.895-0.747-5.313-2.16-1.58-1.576-2.449-3.797-2.449-6.256v-9.157c0-4.804 3.348-8.427 7.788-8.427h13.091zM22.212 4.667h-13.091c-3.353 0-5.788 2.703-5.788 6.427v9.157c0 1.924 0.661 3.643 1.861 4.839 1.035 1.033 2.385 1.577 3.905 1.577h13.112c0.003-0.003 0.013 0 0.021 0 1.521 0 2.871-0.544 3.905-1.577 1.201-1.196 1.861-2.915 1.861-4.839v-9.157c0-3.724-2.435-6.427-5.788-6.427zM24.313 10.838c0.348 0.428 0.283 1.057-0.145 1.407l-5.925 4.816c-0.749 0.595-1.645 0.892-2.54 0.892-0.892 0-1.781-0.295-2.525-0.884l-5.98-4.821c-0.431-0.347-0.497-0.977-0.152-1.407 0.348-0.428 0.977-0.496 1.407-0.151l5.975 4.816c0.751 0.595 1.808 0.595 2.564-0.005l5.915-4.808c0.429-0.351 1.059-0.284 1.408 0.145z"></path>
</symbol>

<symbol id="Calling" viewBox="0 0 32 32">
<path fill="#b0b0b2" style="fill: var(--color1, #b0b0b2)" d="M8.877 2.666c1.489 0.020 2.551 1.136 3.893 2.548 0.332 0.348 0.691 0.728 1.092 1.128 1.945 1.947 1.392 3.535 0.945 4.809-0.485 1.391-0.905 2.591 1.609 5.105s3.713 2.095 5.103 1.605c1.276-0.445 2.86-1.003 4.809 0.944 0.396 0.396 0.769 0.751 1.116 1.080 1.417 1.349 2.537 2.415 2.556 3.908 0.015 1.272-0.759 2.571-2.668 4.48l-0.845-0.573 0.716 0.697c-0.423 0.433-1.547 1.588-3.748 1.601h-0.040c-3.323 0-7.655-2.645-12.876-7.865-5.243-5.241-7.892-9.587-7.872-12.916 0.012-2.2 1.165-3.327 1.599-3.749l0.037-0.040 0.090-0.090c1.913-1.913 3.228-2.7 4.484-2.672zM8.851 4.666h-0.011c-0.599 0-1.508 0.6-2.776 1.832l-0.255 0.25 0.003-0.001c0 0-0.022 0.025-0.059 0.063l-0.089 0.089c-0.323 0.313-0.991 0.965-0.997 2.329-0.011 1.908 1.244 5.451 7.285 11.491 6.012 6.011 9.549 7.28 11.463 7.28h0.028c1.364-0.008 2.015-0.676 2.328-0.997 0.095-0.097 0.172-0.171 0.227-0.215 1.329-1.337 2.009-2.331 2.003-2.969-0.008-0.651-0.817-1.419-1.936-2.484-0.356-0.337-0.743-0.707-1.151-1.115-1.059-1.055-1.58-0.875-2.733-0.469-1.593 0.559-3.776 1.324-7.177-2.080-3.403-3.401-2.64-5.584-2.084-7.179 0.403-1.152 0.587-1.676-0.471-2.735-0.413-0.413-0.785-0.805-1.128-1.165-1.059-1.112-1.823-1.916-2.469-1.925zM20.329 7.41c2.775 0.539 4.917 2.68 5.457 5.456 0.105 0.544-0.248 1.068-0.789 1.173-0.065 0.012-0.129 0.019-0.193 0.019-0.469 0-0.887-0.331-0.98-0.808-0.384-1.973-1.905-3.495-3.876-3.877-0.543-0.105-0.896-0.629-0.791-1.172s0.639-0.897 1.172-0.791zM20.249 2.674c5.437 0.604 9.66 4.821 10.269 10.257 0.061 0.549-0.333 1.044-0.881 1.105-0.037 0.004-0.076 0.007-0.113 0.007-0.503 0-0.935-0.377-0.992-0.888-0.505-4.501-4.001-7.995-8.504-8.495-0.548-0.061-0.944-0.555-0.883-1.104 0.060-0.548 0.549-0.952 1.104-0.883z"></path>
</symbol>

<symbol id="Location" viewBox="0 0 32 32">
<path fill="#b0b0b2" style="fill: var(--color1, #b0b0b2)" d="M16.333 2.666c6.065 0 11 4.972 11 11.084 0 7.513-8.608 14.916-11 14.916s-11-7.403-11-14.916c0-6.112 4.935-11.084 11-11.084zM16.333 4.666c-4.963 0-9 4.076-9 9.084 0 6.372 7.499 12.58 9 12.911 1.501-0.332 9-6.54 9-12.911 0-5.008-4.037-9.084-9-9.084zM16.334 9.332c2.389 0 4.333 1.944 4.333 4.335 0 2.389-1.944 4.332-4.333 4.332s-4.333-1.943-4.333-4.332c0-2.391 1.944-4.335 4.333-4.335zM16.334 11.332c-1.287 0-2.333 1.047-2.333 2.335 0 1.287 1.047 2.332 2.333 2.332s2.333-1.045 2.333-2.332c0-1.288-1.047-2.335-2.333-2.335z"></path>
</symbol>






<symbol id="twitter" viewBox="0 0 32 32">
<path fill="#18181b" style="fill: var(--color1, #18181b); stroke: var(--color2, #000)" stroke="#000" stroke-linejoin="miter" stroke-linecap="butt" stroke-miterlimit="4" stroke-width="0.6957" d="M31.652 16c0 8.644-7.008 15.652-15.652 15.652s-15.652-7.008-15.652-15.652c0-8.644 7.008-15.652 15.652-15.652s15.652 7.008 15.652 15.652z"></path>
<path fill="#fff" style="fill: var(--color3, #fff)" d="M23.096 12.552c-0.479 0.213-0.984 0.346-1.516 0.426 0.532-0.319 0.958-0.825 1.144-1.437-0.505 0.293-1.064 0.505-1.676 0.638-0.479-0.505-1.171-0.825-1.916-0.825-1.437 0-2.607 1.171-2.607 2.607 0 0.213 0.027 0.399 0.080 0.585-2.155-0.106-4.097-1.144-5.401-2.74-0.213 0.399-0.346 0.825-0.346 1.304 0 0.905 0.452 1.703 1.171 2.182-0.426-0.027-0.825-0.133-1.197-0.319v0.027c0 1.277 0.905 2.341 2.102 2.581-0.213 0.053-0.452 0.080-0.692 0.080-0.16 0-0.346-0.027-0.505-0.053 0.346 1.038 1.304 1.809 2.448 1.809-0.905 0.692-2.022 1.117-3.246 1.117-0.213 0-0.426 0-0.612-0.027 1.171 0.745 2.527 1.171 4.017 1.171 4.815 0 7.449-3.991 7.449-7.449 0-0.106 0-0.239 0-0.346 0.505-0.346 0.958-0.798 1.304-1.33z"></path>
</symbol>



<symbol id="instagram" viewBox="0 0 32 32">
<path fill="#18181b" style="fill: var(--color1, #18181b); stroke: var(--color2, #000)" stroke="#000" stroke-linejoin="miter" stroke-linecap="butt" stroke-miterlimit="4" stroke-width="0.6957" d="M31.652 16c0 8.644-7.008 15.652-15.652 15.652s-15.652-7.008-15.652-15.652c0-8.644 7.008-15.652 15.652-15.652s15.652 7.008 15.652 15.652z"></path>
<path fill="#fff" style="fill: var(--color3, #fff)" d="M15.997 9.653c2.067 0 2.312 0.008 3.129 0.045 0.491 0.006 0.977 0.096 1.438 0.267 0.334 0.129 0.637 0.326 0.89 0.579s0.45 0.556 0.579 0.89c0.17 0.461 0.261 0.947 0.267 1.438 0.037 0.817 0.045 1.061 0.045 3.128s-0.008 2.312-0.045 3.128c-0.006 0.491-0.096 0.977-0.267 1.438-0.129 0.334-0.326 0.637-0.579 0.89s-0.556 0.45-0.89 0.579c-0.46 0.17-0.947 0.261-1.438 0.267-0.816 0.037-1.061 0.045-3.128 0.045s-2.312-0.008-3.128-0.045c-0.491-0.006-0.977-0.096-1.438-0.267-0.334-0.129-0.637-0.326-0.89-0.579s-0.45-0.556-0.579-0.89c-0.17-0.461-0.261-0.947-0.267-1.438-0.037-0.817-0.045-1.061-0.045-3.128s0.008-2.312 0.045-3.128c0.006-0.491 0.096-0.977 0.267-1.438 0.129-0.334 0.326-0.637 0.579-0.89s0.556-0.45 0.89-0.579c0.461-0.17 0.947-0.261 1.438-0.267 0.817-0.037 1.061-0.045 3.128-0.045zM15.997 8.258c-2.101 0-2.366 0.009-3.192 0.046-0.643 0.013-1.278 0.134-1.88 0.36-0.516 0.194-0.984 0.499-1.37 0.893-0.394 0.386-0.699 0.854-0.894 1.371-0.225 0.602-0.347 1.238-0.36 1.88-0.037 0.825-0.046 1.090-0.046 3.191s0.009 2.366 0.046 3.192c0.013 0.642 0.134 1.278 0.36 1.88 0.194 0.517 0.499 0.985 0.893 1.371 0.387 0.394 0.854 0.699 1.371 0.893 0.602 0.225 1.238 0.347 1.88 0.36 0.826 0.037 1.089 0.046 3.192 0.046s2.366-0.009 3.192-0.046c0.643-0.013 1.278-0.134 1.88-0.36 0.514-0.199 0.981-0.504 1.371-0.894s0.694-0.857 0.893-1.371c0.225-0.602 0.347-1.238 0.36-1.88 0.037-0.825 0.046-1.090 0.046-3.191s-0.009-2.366-0.046-3.192c-0.013-0.643-0.134-1.278-0.36-1.88-0.194-0.517-0.499-0.985-0.893-1.371-0.387-0.394-0.855-0.699-1.371-0.893-0.602-0.225-1.238-0.347-1.88-0.36-0.825-0.037-1.090-0.046-3.191-0.046z"></path>
<path fill="#fff" style="fill: var(--color3, #fff)" d="M16 12.024c-0.786 0-1.555 0.233-2.209 0.67s-1.163 1.058-1.464 1.784c-0.301 0.726-0.38 1.526-0.226 2.297s0.532 1.48 1.088 2.036c0.556 0.556 1.264 0.935 2.036 1.088s1.571 0.075 2.297-0.226c0.726-0.301 1.347-0.811 1.784-1.464s0.67-1.422 0.67-2.209c0-1.054-0.419-2.066-1.164-2.811s-1.757-1.164-2.811-1.164zM16 18.581c-0.51 0-1.009-0.151-1.434-0.435s-0.755-0.687-0.95-1.158c-0.195-0.471-0.246-0.99-0.147-1.491s0.345-0.96 0.706-1.321c0.361-0.361 0.821-0.607 1.321-0.706s1.019-0.049 1.491 0.147c0.472 0.195 0.875 0.526 1.158 0.95s0.435 0.923 0.435 1.434c0 0.684-0.272 1.341-0.756 1.825s-1.14 0.756-1.825 0.756z"></path>
<path fill="#fff" style="fill: var(--color3, #fff)" d="M20.13 12.797c0.513 0 0.929-0.416 0.929-0.929s-0.416-0.929-0.929-0.929c-0.513 0-0.929 0.416-0.929 0.929s0.416 0.929 0.929 0.929z"></path>
</symbol>


<symbol id="github" viewBox="0 0 32 32">
<path fill="#18181b" style="fill: var(--color1, #18181b); stroke: var(--color2, #000)" stroke="#000" stroke-linejoin="miter" stroke-linecap="butt" stroke-miterlimit="4" stroke-width="0.6957" d="M31.652 16c0 8.644-7.008 15.652-15.652 15.652s-15.652-7.008-15.652-15.652c0-8.644 7.008-15.652 15.652-15.652s15.652 7.008 15.652 15.652z"></path>
<path fill="#fff" style="fill: var(--color3, #fff)" d="M16.696 8.258c-4.104 0-7.406 3.302-7.406 7.406 0 3.271 2.129 6.048 5.060 7.035 0.37 0.062 0.494-0.154 0.494-0.37 0-0.185 0-0.648 0-1.265-2.067 0.463-2.499-0.987-2.499-0.987-0.339-0.864-0.833-1.080-0.833-1.080-0.679-0.463 0.062-0.463 0.062-0.463 0.741 0.062 1.142 0.771 1.142 0.771 0.648 1.142 1.728 0.802 2.16 0.617 0.062-0.494 0.247-0.802 0.463-0.987-1.635-0.185-3.363-0.833-3.363-3.672 0-0.802 0.278-1.481 0.771-1.975-0.062-0.185-0.339-0.926 0.062-1.975 0 0 0.617-0.185 2.037 0.771 0.586-0.154 1.234-0.247 1.851-0.247s1.265 0.093 1.851 0.247c1.419-0.957 2.037-0.771 2.037-0.771 0.401 1.018 0.154 1.759 0.062 1.975 0.463 0.525 0.771 1.173 0.771 1.975 0 2.839-1.728 3.456-3.394 3.641 0.278 0.216 0.494 0.679 0.494 1.358 0 0.987 0 1.79 0 2.037 0 0.185 0.123 0.432 0.525 0.37 2.931-0.957 5.060-3.734 5.060-7.004 0-4.104-3.302-7.406-7.406-7.406z"></path>
</symbol>


<symbol id="cloud" viewBox="0 0 32 32">
<path fill="none" stroke="#d4d4d8" style="stroke: var(--color1, #d4d4d8)" stroke-linejoin="round" stroke-linecap="round" stroke-miterlimit="4" stroke-width="2.5263" d="M4 20c0 2.946 2.388 5.333 5.333 5.333h12c3.682 0 6.667-2.985 6.667-6.667s-2.985-6.667-6.667-6.667c-0.044 0-0.089 0-0.133 0.001-0.617-3.044-3.308-5.335-6.534-5.335-3.682 0-6.667 2.985-6.667 6.667 0 0.502 0.056 0.992 0.161 1.463-2.382 0.534-4.161 2.661-4.161 5.204z"></path>
</symbol>




<symbol id="facebook" viewBox="0 0 32 32">
<path fill="#18181b" style="fill: var(--color1, #18181b); stroke: var(--color2, #000)" stroke="#000" stroke-linejoin="miter" stroke-linecap="butt" stroke-miterlimit="4" stroke-width="0.6957" d="M31.652 16c0 8.644-7.008 15.652-15.652 15.652s-15.652-7.008-15.652-15.652c0-8.644 7.008-15.652 15.652-15.652s15.652 7.008 15.652 15.652z"></path>
<path fill="#fff" style="fill: var(--color3, #fff)" d="M14.527 23.205v-6.347h-2.136v-2.474h2.136v-1.824c0-2.117 1.293-3.27 3.181-3.27 0.905 0 1.682 0.067 1.909 0.097v2.212l-1.31 0.001c-1.027 0-1.226 0.488-1.226 1.204v1.579h2.449l-0.319 2.474h-2.131v6.347h-2.554z"></path>
</symbol>
</defs></svg>
